<svg xmlns="http://www.w3.org/2000/svg" xmlns:xlink="http://www.w3.org/1999/xlink" width="1366" height="755" viewBox="0 0 1366 755">
  <defs>
    <clipPath id="clip-path">
      <rect width="89" height="132" fill="none"/>
    </clipPath>
  </defs>
  <g id="Group_228" data-name="Group 228" transform="translate(0 -840)">
    <rect id="Rectangle_663" data-name="Rectangle 663" width="1366" height="755" transform="translate(0 840)" fill="#fff"/>
    <g id="Repeat_Grid_24" data-name="Repeat Grid 24" transform="translate(36 893)" opacity="0.5" clip-path="url(#clip-path)">
      <g transform="translate(-255 -1505)">
        <g id="Ellipse_2" data-name="Ellipse 2" transform="translate(255 1505)" fill="#024eff" stroke="#024eff" stroke-width="1">
          <circle cx="3.5" cy="3.5" r="3.5" stroke="none"/>
          <circle cx="3.5" cy="3.5" r="3" fill="none"/>
        </g>
      </g>
      <g transform="translate(-239 -1505)">
        <g id="Ellipse_2-2" data-name="Ellipse 2" transform="translate(255 1505)" fill="#024eff" stroke="#024eff" stroke-width="1">
          <circle cx="3.5" cy="3.5" r="3.5" stroke="none"/>
          <circle cx="3.5" cy="3.5" r="3" fill="none"/>
        </g>
      </g>
      <g transform="translate(-223 -1505)">
        <g id="Ellipse_2-3" data-name="Ellipse 2" transform="translate(255 1505)" fill="#024eff" stroke="#024eff" stroke-width="1">
          <circle cx="3.5" cy="3.5" r="3.5" stroke="none"/>
          <circle cx="3.5" cy="3.5" r="3" fill="none"/>
        </g>
      </g>
      <g transform="translate(-207 -1505)">
        <g id="Ellipse_2-4" data-name="Ellipse 2" transform="translate(255 1505)" fill="#024eff" stroke="#024eff" stroke-width="1">
          <circle cx="3.5" cy="3.5" r="3.5" stroke="none"/>
          <circle cx="3.5" cy="3.5" r="3" fill="none"/>
        </g>
      </g>
      <g transform="translate(-191 -1505)">
        <g id="Ellipse_2-5" data-name="Ellipse 2" transform="translate(255 1505)" fill="#024eff" stroke="#024eff" stroke-width="1">
          <circle cx="3.5" cy="3.5" r="3.5" stroke="none"/>
          <circle cx="3.5" cy="3.5" r="3" fill="none"/>
        </g>
      </g>
      <g transform="translate(-175 -1505)">
        <g id="Ellipse_2-6" data-name="Ellipse 2" transform="translate(255 1505)" fill="#024eff" stroke="#024eff" stroke-width="1">
          <circle cx="3.5" cy="3.5" r="3.5" stroke="none"/>
          <circle cx="3.5" cy="3.5" r="3" fill="none"/>
        </g>
      </g>
      <g transform="translate(-255 -1488)">
        <g id="Ellipse_2-7" data-name="Ellipse 2" transform="translate(255 1505)" fill="#024eff" stroke="#024eff" stroke-width="1">
          <circle cx="3.5" cy="3.5" r="3.5" stroke="none"/>
          <circle cx="3.5" cy="3.5" r="3" fill="none"/>
        </g>
      </g>
      <g transform="translate(-239 -1488)">
        <g id="Ellipse_2-8" data-name="Ellipse 2" transform="translate(255 1505)" fill="#024eff" stroke="#024eff" stroke-width="1">
          <circle cx="3.5" cy="3.5" r="3.5" stroke="none"/>
          <circle cx="3.5" cy="3.5" r="3" fill="none"/>
        </g>
      </g>
      <g transform="translate(-223 -1488)">
        <g id="Ellipse_2-9" data-name="Ellipse 2" transform="translate(255 1505)" fill="#024eff" stroke="#024eff" stroke-width="1">
          <circle cx="3.5" cy="3.5" r="3.5" stroke="none"/>
          <circle cx="3.5" cy="3.5" r="3" fill="none"/>
        </g>
      </g>
      <g transform="translate(-207 -1488)">
        <g id="Ellipse_2-10" data-name="Ellipse 2" transform="translate(255 1505)" fill="#024eff" stroke="#024eff" stroke-width="1">
          <circle cx="3.5" cy="3.5" r="3.5" stroke="none"/>
          <circle cx="3.5" cy="3.5" r="3" fill="none"/>
        </g>
      </g>
      <g transform="translate(-191 -1488)">
        <g id="Ellipse_2-11" data-name="Ellipse 2" transform="translate(255 1505)" fill="#024eff" stroke="#024eff" stroke-width="1">
          <circle cx="3.5" cy="3.5" r="3.5" stroke="none"/>
          <circle cx="3.5" cy="3.5" r="3" fill="none"/>
        </g>
      </g>
      <g transform="translate(-175 -1488)">
        <g id="Ellipse_2-12" data-name="Ellipse 2" transform="translate(255 1505)" fill="#024eff" stroke="#024eff" stroke-width="1">
          <circle cx="3.5" cy="3.5" r="3.5" stroke="none"/>
          <circle cx="3.5" cy="3.5" r="3" fill="none"/>
        </g>
      </g>
      <g transform="translate(-255 -1471)">
        <g id="Ellipse_2-13" data-name="Ellipse 2" transform="translate(255 1505)" fill="#024eff" stroke="#024eff" stroke-width="1">
          <circle cx="3.5" cy="3.5" r="3.5" stroke="none"/>
          <circle cx="3.5" cy="3.5" r="3" fill="none"/>
        </g>
      </g>
      <g transform="translate(-239 -1471)">
        <g id="Ellipse_2-14" data-name="Ellipse 2" transform="translate(255 1505)" fill="#024eff" stroke="#024eff" stroke-width="1">
          <circle cx="3.5" cy="3.5" r="3.5" stroke="none"/>
          <circle cx="3.5" cy="3.5" r="3" fill="none"/>
        </g>
      </g>
      <g transform="translate(-223 -1471)">
        <g id="Ellipse_2-15" data-name="Ellipse 2" transform="translate(255 1505)" fill="#024eff" stroke="#024eff" stroke-width="1">
          <circle cx="3.5" cy="3.5" r="3.5" stroke="none"/>
          <circle cx="3.5" cy="3.5" r="3" fill="none"/>
        </g>
      </g>
      <g transform="translate(-207 -1471)">
        <g id="Ellipse_2-16" data-name="Ellipse 2" transform="translate(255 1505)" fill="#024eff" stroke="#024eff" stroke-width="1">
          <circle cx="3.5" cy="3.5" r="3.5" stroke="none"/>
          <circle cx="3.5" cy="3.5" r="3" fill="none"/>
        </g>
      </g>
      <g transform="translate(-191 -1471)">
        <g id="Ellipse_2-17" data-name="Ellipse 2" transform="translate(255 1505)" fill="#024eff" stroke="#024eff" stroke-width="1">
          <circle cx="3.5" cy="3.5" r="3.5" stroke="none"/>
          <circle cx="3.5" cy="3.5" r="3" fill="none"/>
        </g>
      </g>
      <g transform="translate(-175 -1471)">
        <g id="Ellipse_2-18" data-name="Ellipse 2" transform="translate(255 1505)" fill="#024eff" stroke="#024eff" stroke-width="1">
          <circle cx="3.5" cy="3.5" r="3.5" stroke="none"/>
          <circle cx="3.5" cy="3.5" r="3" fill="none"/>
        </g>
      </g>
      <g transform="translate(-255 -1454)">
        <g id="Ellipse_2-19" data-name="Ellipse 2" transform="translate(255 1505)" fill="#024eff" stroke="#024eff" stroke-width="1">
          <circle cx="3.5" cy="3.5" r="3.5" stroke="none"/>
          <circle cx="3.5" cy="3.5" r="3" fill="none"/>
        </g>
      </g>
      <g transform="translate(-239 -1454)">
        <g id="Ellipse_2-20" data-name="Ellipse 2" transform="translate(255 1505)" fill="#024eff" stroke="#024eff" stroke-width="1">
          <circle cx="3.5" cy="3.5" r="3.5" stroke="none"/>
          <circle cx="3.5" cy="3.5" r="3" fill="none"/>
        </g>
      </g>
      <g transform="translate(-223 -1454)">
        <g id="Ellipse_2-21" data-name="Ellipse 2" transform="translate(255 1505)" fill="#024eff" stroke="#024eff" stroke-width="1">
          <circle cx="3.5" cy="3.5" r="3.5" stroke="none"/>
          <circle cx="3.5" cy="3.5" r="3" fill="none"/>
        </g>
      </g>
      <g transform="translate(-207 -1454)">
        <g id="Ellipse_2-22" data-name="Ellipse 2" transform="translate(255 1505)" fill="#024eff" stroke="#024eff" stroke-width="1">
          <circle cx="3.5" cy="3.5" r="3.5" stroke="none"/>
          <circle cx="3.5" cy="3.5" r="3" fill="none"/>
        </g>
      </g>
      <g transform="translate(-191 -1454)">
        <g id="Ellipse_2-23" data-name="Ellipse 2" transform="translate(255 1505)" fill="#024eff" stroke="#024eff" stroke-width="1">
          <circle cx="3.5" cy="3.5" r="3.5" stroke="none"/>
          <circle cx="3.5" cy="3.5" r="3" fill="none"/>
        </g>
      </g>
      <g transform="translate(-175 -1454)">
        <g id="Ellipse_2-24" data-name="Ellipse 2" transform="translate(255 1505)" fill="#024eff" stroke="#024eff" stroke-width="1">
          <circle cx="3.5" cy="3.5" r="3.5" stroke="none"/>
          <circle cx="3.5" cy="3.5" r="3" fill="none"/>
        </g>
      </g>
      <g transform="translate(-255 -1437)">
        <g id="Ellipse_2-25" data-name="Ellipse 2" transform="translate(255 1505)" fill="#024eff" stroke="#024eff" stroke-width="1">
          <circle cx="3.5" cy="3.5" r="3.5" stroke="none"/>
          <circle cx="3.5" cy="3.5" r="3" fill="none"/>
        </g>
      </g>
      <g transform="translate(-239 -1437)">
        <g id="Ellipse_2-26" data-name="Ellipse 2" transform="translate(255 1505)" fill="#024eff" stroke="#024eff" stroke-width="1">
          <circle cx="3.5" cy="3.5" r="3.5" stroke="none"/>
          <circle cx="3.5" cy="3.5" r="3" fill="none"/>
        </g>
      </g>
      <g transform="translate(-223 -1437)">
        <g id="Ellipse_2-27" data-name="Ellipse 2" transform="translate(255 1505)" fill="#024eff" stroke="#024eff" stroke-width="1">
          <circle cx="3.5" cy="3.5" r="3.5" stroke="none"/>
          <circle cx="3.5" cy="3.5" r="3" fill="none"/>
        </g>
      </g>
      <g transform="translate(-207 -1437)">
        <g id="Ellipse_2-28" data-name="Ellipse 2" transform="translate(255 1505)" fill="#024eff" stroke="#024eff" stroke-width="1">
          <circle cx="3.5" cy="3.5" r="3.5" stroke="none"/>
          <circle cx="3.5" cy="3.5" r="3" fill="none"/>
        </g>
      </g>
      <g transform="translate(-191 -1437)">
        <g id="Ellipse_2-29" data-name="Ellipse 2" transform="translate(255 1505)" fill="#024eff" stroke="#024eff" stroke-width="1">
          <circle cx="3.5" cy="3.5" r="3.5" stroke="none"/>
          <circle cx="3.5" cy="3.5" r="3" fill="none"/>
        </g>
      </g>
      <g transform="translate(-175 -1437)">
        <g id="Ellipse_2-30" data-name="Ellipse 2" transform="translate(255 1505)" fill="#024eff" stroke="#024eff" stroke-width="1">
          <circle cx="3.5" cy="3.5" r="3.5" stroke="none"/>
          <circle cx="3.5" cy="3.5" r="3" fill="none"/>
        </g>
      </g>
      <g transform="translate(-255 -1420)">
        <g id="Ellipse_2-31" data-name="Ellipse 2" transform="translate(255 1505)" fill="#024eff" stroke="#024eff" stroke-width="1">
          <circle cx="3.5" cy="3.5" r="3.5" stroke="none"/>
          <circle cx="3.5" cy="3.5" r="3" fill="none"/>
        </g>
      </g>
      <g transform="translate(-239 -1420)">
        <g id="Ellipse_2-32" data-name="Ellipse 2" transform="translate(255 1505)" fill="#024eff" stroke="#024eff" stroke-width="1">
          <circle cx="3.5" cy="3.5" r="3.5" stroke="none"/>
          <circle cx="3.5" cy="3.5" r="3" fill="none"/>
        </g>
      </g>
      <g transform="translate(-223 -1420)">
        <g id="Ellipse_2-33" data-name="Ellipse 2" transform="translate(255 1505)" fill="#024eff" stroke="#024eff" stroke-width="1">
          <circle cx="3.5" cy="3.5" r="3.5" stroke="none"/>
          <circle cx="3.5" cy="3.5" r="3" fill="none"/>
        </g>
      </g>
      <g transform="translate(-207 -1420)">
        <g id="Ellipse_2-34" data-name="Ellipse 2" transform="translate(255 1505)" fill="#024eff" stroke="#024eff" stroke-width="1">
          <circle cx="3.5" cy="3.5" r="3.5" stroke="none"/>
          <circle cx="3.5" cy="3.5" r="3" fill="none"/>
        </g>
      </g>
      <g transform="translate(-191 -1420)">
        <g id="Ellipse_2-35" data-name="Ellipse 2" transform="translate(255 1505)" fill="#024eff" stroke="#024eff" stroke-width="1">
          <circle cx="3.5" cy="3.5" r="3.5" stroke="none"/>
          <circle cx="3.5" cy="3.5" r="3" fill="none"/>
        </g>
      </g>
      <g transform="translate(-175 -1420)">
        <g id="Ellipse_2-36" data-name="Ellipse 2" transform="translate(255 1505)" fill="#024eff" stroke="#024eff" stroke-width="1">
          <circle cx="3.5" cy="3.5" r="3.5" stroke="none"/>
          <circle cx="3.5" cy="3.5" r="3" fill="none"/>
        </g>
      </g>
      <g transform="translate(-255 -1403)">
        <g id="Ellipse_2-37" data-name="Ellipse 2" transform="translate(255 1505)" fill="#024eff" stroke="#024eff" stroke-width="1">
          <circle cx="3.5" cy="3.5" r="3.5" stroke="none"/>
          <circle cx="3.5" cy="3.5" r="3" fill="none"/>
        </g>
      </g>
      <g transform="translate(-239 -1403)">
        <g id="Ellipse_2-38" data-name="Ellipse 2" transform="translate(255 1505)" fill="#024eff" stroke="#024eff" stroke-width="1">
          <circle cx="3.5" cy="3.5" r="3.5" stroke="none"/>
          <circle cx="3.5" cy="3.5" r="3" fill="none"/>
        </g>
      </g>
      <g transform="translate(-223 -1403)">
        <g id="Ellipse_2-39" data-name="Ellipse 2" transform="translate(255 1505)" fill="#024eff" stroke="#024eff" stroke-width="1">
          <circle cx="3.5" cy="3.5" r="3.5" stroke="none"/>
          <circle cx="3.5" cy="3.5" r="3" fill="none"/>
        </g>
      </g>
      <g transform="translate(-207 -1403)">
        <g id="Ellipse_2-40" data-name="Ellipse 2" transform="translate(255 1505)" fill="#024eff" stroke="#024eff" stroke-width="1">
          <circle cx="3.5" cy="3.5" r="3.5" stroke="none"/>
          <circle cx="3.5" cy="3.5" r="3" fill="none"/>
        </g>
      </g>
      <g transform="translate(-191 -1403)">
        <g id="Ellipse_2-41" data-name="Ellipse 2" transform="translate(255 1505)" fill="#024eff" stroke="#024eff" stroke-width="1">
          <circle cx="3.5" cy="3.5" r="3.5" stroke="none"/>
          <circle cx="3.5" cy="3.5" r="3" fill="none"/>
        </g>
      </g>
      <g transform="translate(-175 -1403)">
        <g id="Ellipse_2-42" data-name="Ellipse 2" transform="translate(255 1505)" fill="#024eff" stroke="#024eff" stroke-width="1">
          <circle cx="3.5" cy="3.5" r="3.5" stroke="none"/>
          <circle cx="3.5" cy="3.5" r="3" fill="none"/>
        </g>
      </g>
      <g transform="translate(-255 -1386)">
        <g id="Ellipse_2-43" data-name="Ellipse 2" transform="translate(255 1505)" fill="#024eff" stroke="#024eff" stroke-width="1">
          <circle cx="3.5" cy="3.5" r="3.5" stroke="none"/>
          <circle cx="3.5" cy="3.5" r="3" fill="none"/>
        </g>
      </g>
      <g transform="translate(-239 -1386)">
        <g id="Ellipse_2-44" data-name="Ellipse 2" transform="translate(255 1505)" fill="#024eff" stroke="#024eff" stroke-width="1">
          <circle cx="3.5" cy="3.5" r="3.5" stroke="none"/>
          <circle cx="3.5" cy="3.5" r="3" fill="none"/>
        </g>
      </g>
      <g transform="translate(-223 -1386)">
        <g id="Ellipse_2-45" data-name="Ellipse 2" transform="translate(255 1505)" fill="#024eff" stroke="#024eff" stroke-width="1">
          <circle cx="3.5" cy="3.5" r="3.5" stroke="none"/>
          <circle cx="3.5" cy="3.5" r="3" fill="none"/>
        </g>
      </g>
      <g transform="translate(-207 -1386)">
        <g id="Ellipse_2-46" data-name="Ellipse 2" transform="translate(255 1505)" fill="#024eff" stroke="#024eff" stroke-width="1">
          <circle cx="3.5" cy="3.5" r="3.5" stroke="none"/>
          <circle cx="3.5" cy="3.5" r="3" fill="none"/>
        </g>
      </g>
      <g transform="translate(-191 -1386)">
        <g id="Ellipse_2-47" data-name="Ellipse 2" transform="translate(255 1505)" fill="#024eff" stroke="#024eff" stroke-width="1">
          <circle cx="3.5" cy="3.5" r="3.5" stroke="none"/>
          <circle cx="3.5" cy="3.5" r="3" fill="none"/>
        </g>
      </g>
      <g transform="translate(-175 -1386)">
        <g id="Ellipse_2-48" data-name="Ellipse 2" transform="translate(255 1505)" fill="#024eff" stroke="#024eff" stroke-width="1">
          <circle cx="3.5" cy="3.5" r="3.5" stroke="none"/>
          <circle cx="3.5" cy="3.5" r="3" fill="none"/>
        </g>
      </g>
    </g>
    <g id="Repeat_Grid_25" data-name="Repeat Grid 25" transform="translate(1243 1426.496)" opacity="0.5" clip-path="url(#clip-path)">
      <g transform="translate(-255 -1505)">
        <g id="Ellipse_2-49" data-name="Ellipse 2" transform="translate(255 1505)" fill="#024eff" stroke="#024eff" stroke-width="1">
          <circle cx="3.5" cy="3.5" r="3.5" stroke="none"/>
          <circle cx="3.5" cy="3.5" r="3" fill="none"/>
        </g>
      </g>
      <g transform="translate(-239 -1505)">
        <g id="Ellipse_2-50" data-name="Ellipse 2" transform="translate(255 1505)" fill="#024eff" stroke="#024eff" stroke-width="1">
          <circle cx="3.5" cy="3.5" r="3.5" stroke="none"/>
          <circle cx="3.5" cy="3.5" r="3" fill="none"/>
        </g>
      </g>
      <g transform="translate(-223 -1505)">
        <g id="Ellipse_2-51" data-name="Ellipse 2" transform="translate(255 1505)" fill="#024eff" stroke="#024eff" stroke-width="1">
          <circle cx="3.5" cy="3.5" r="3.5" stroke="none"/>
          <circle cx="3.5" cy="3.5" r="3" fill="none"/>
        </g>
      </g>
      <g transform="translate(-207 -1505)">
        <g id="Ellipse_2-52" data-name="Ellipse 2" transform="translate(255 1505)" fill="#024eff" stroke="#024eff" stroke-width="1">
          <circle cx="3.5" cy="3.5" r="3.5" stroke="none"/>
          <circle cx="3.5" cy="3.5" r="3" fill="none"/>
        </g>
      </g>
      <g transform="translate(-191 -1505)">
        <g id="Ellipse_2-53" data-name="Ellipse 2" transform="translate(255 1505)" fill="#024eff" stroke="#024eff" stroke-width="1">
          <circle cx="3.5" cy="3.5" r="3.5" stroke="none"/>
          <circle cx="3.5" cy="3.5" r="3" fill="none"/>
        </g>
      </g>
      <g transform="translate(-175 -1505)">
        <g id="Ellipse_2-54" data-name="Ellipse 2" transform="translate(255 1505)" fill="#024eff" stroke="#024eff" stroke-width="1">
          <circle cx="3.5" cy="3.5" r="3.5" stroke="none"/>
          <circle cx="3.5" cy="3.5" r="3" fill="none"/>
        </g>
      </g>
      <g transform="translate(-255 -1488)">
        <g id="Ellipse_2-55" data-name="Ellipse 2" transform="translate(255 1505)" fill="#024eff" stroke="#024eff" stroke-width="1">
          <circle cx="3.5" cy="3.5" r="3.5" stroke="none"/>
          <circle cx="3.5" cy="3.5" r="3" fill="none"/>
        </g>
      </g>
      <g transform="translate(-239 -1488)">
        <g id="Ellipse_2-56" data-name="Ellipse 2" transform="translate(255 1505)" fill="#024eff" stroke="#024eff" stroke-width="1">
          <circle cx="3.5" cy="3.5" r="3.5" stroke="none"/>
          <circle cx="3.5" cy="3.5" r="3" fill="none"/>
        </g>
      </g>
      <g transform="translate(-223 -1488)">
        <g id="Ellipse_2-57" data-name="Ellipse 2" transform="translate(255 1505)" fill="#024eff" stroke="#024eff" stroke-width="1">
          <circle cx="3.5" cy="3.5" r="3.5" stroke="none"/>
          <circle cx="3.5" cy="3.5" r="3" fill="none"/>
        </g>
      </g>
      <g transform="translate(-207 -1488)">
        <g id="Ellipse_2-58" data-name="Ellipse 2" transform="translate(255 1505)" fill="#024eff" stroke="#024eff" stroke-width="1">
          <circle cx="3.5" cy="3.5" r="3.5" stroke="none"/>
          <circle cx="3.5" cy="3.5" r="3" fill="none"/>
        </g>
      </g>
      <g transform="translate(-191 -1488)">
        <g id="Ellipse_2-59" data-name="Ellipse 2" transform="translate(255 1505)" fill="#024eff" stroke="#024eff" stroke-width="1">
          <circle cx="3.5" cy="3.5" r="3.5" stroke="none"/>
          <circle cx="3.5" cy="3.5" r="3" fill="none"/>
        </g>
      </g>
      <g transform="translate(-175 -1488)">
        <g id="Ellipse_2-60" data-name="Ellipse 2" transform="translate(255 1505)" fill="#024eff" stroke="#024eff" stroke-width="1">
          <circle cx="3.5" cy="3.5" r="3.5" stroke="none"/>
          <circle cx="3.5" cy="3.5" r="3" fill="none"/>
        </g>
      </g>
      <g transform="translate(-255 -1471)">
        <g id="Ellipse_2-61" data-name="Ellipse 2" transform="translate(255 1505)" fill="#024eff" stroke="#024eff" stroke-width="1">
          <circle cx="3.5" cy="3.5" r="3.5" stroke="none"/>
          <circle cx="3.5" cy="3.5" r="3" fill="none"/>
        </g>
      </g>
      <g transform="translate(-239 -1471)">
        <g id="Ellipse_2-62" data-name="Ellipse 2" transform="translate(255 1505)" fill="#024eff" stroke="#024eff" stroke-width="1">
          <circle cx="3.5" cy="3.5" r="3.5" stroke="none"/>
          <circle cx="3.5" cy="3.5" r="3" fill="none"/>
        </g>
      </g>
      <g transform="translate(-223 -1471)">
        <g id="Ellipse_2-63" data-name="Ellipse 2" transform="translate(255 1505)" fill="#024eff" stroke="#024eff" stroke-width="1">
          <circle cx="3.5" cy="3.5" r="3.5" stroke="none"/>
          <circle cx="3.5" cy="3.5" r="3" fill="none"/>
        </g>
      </g>
      <g transform="translate(-207 -1471)">
        <g id="Ellipse_2-64" data-name="Ellipse 2" transform="translate(255 1505)" fill="#024eff" stroke="#024eff" stroke-width="1">
          <circle cx="3.5" cy="3.5" r="3.5" stroke="none"/>
          <circle cx="3.5" cy="3.5" r="3" fill="none"/>
        </g>
      </g>
      <g transform="translate(-191 -1471)">
        <g id="Ellipse_2-65" data-name="Ellipse 2" transform="translate(255 1505)" fill="#024eff" stroke="#024eff" stroke-width="1">
          <circle cx="3.5" cy="3.5" r="3.5" stroke="none"/>
          <circle cx="3.5" cy="3.5" r="3" fill="none"/>
        </g>
      </g>
      <g transform="translate(-175 -1471)">
        <g id="Ellipse_2-66" data-name="Ellipse 2" transform="translate(255 1505)" fill="#024eff" stroke="#024eff" stroke-width="1">
          <circle cx="3.5" cy="3.5" r="3.5" stroke="none"/>
          <circle cx="3.5" cy="3.5" r="3" fill="none"/>
        </g>
      </g>
      <g transform="translate(-255 -1454)">
        <g id="Ellipse_2-67" data-name="Ellipse 2" transform="translate(255 1505)" fill="#024eff" stroke="#024eff" stroke-width="1">
          <circle cx="3.5" cy="3.5" r="3.5" stroke="none"/>
          <circle cx="3.5" cy="3.5" r="3" fill="none"/>
        </g>
      </g>
      <g transform="translate(-239 -1454)">
        <g id="Ellipse_2-68" data-name="Ellipse 2" transform="translate(255 1505)" fill="#024eff" stroke="#024eff" stroke-width="1">
          <circle cx="3.5" cy="3.5" r="3.5" stroke="none"/>
          <circle cx="3.5" cy="3.5" r="3" fill="none"/>
        </g>
      </g>
      <g transform="translate(-223 -1454)">
        <g id="Ellipse_2-69" data-name="Ellipse 2" transform="translate(255 1505)" fill="#024eff" stroke="#024eff" stroke-width="1">
          <circle cx="3.5" cy="3.5" r="3.5" stroke="none"/>
          <circle cx="3.5" cy="3.5" r="3" fill="none"/>
        </g>
      </g>
      <g transform="translate(-207 -1454)">
        <g id="Ellipse_2-70" data-name="Ellipse 2" transform="translate(255 1505)" fill="#024eff" stroke="#024eff" stroke-width="1">
          <circle cx="3.5" cy="3.5" r="3.5" stroke="none"/>
          <circle cx="3.5" cy="3.5" r="3" fill="none"/>
        </g>
      </g>
      <g transform="translate(-191 -1454)">
        <g id="Ellipse_2-71" data-name="Ellipse 2" transform="translate(255 1505)" fill="#024eff" stroke="#024eff" stroke-width="1">
          <circle cx="3.5" cy="3.5" r="3.5" stroke="none"/>
          <circle cx="3.5" cy="3.5" r="3" fill="none"/>
        </g>
      </g>
      <g transform="translate(-175 -1454)">
        <g id="Ellipse_2-72" data-name="Ellipse 2" transform="translate(255 1505)" fill="#024eff" stroke="#024eff" stroke-width="1">
          <circle cx="3.5" cy="3.5" r="3.5" stroke="none"/>
          <circle cx="3.5" cy="3.5" r="3" fill="none"/>
        </g>
      </g>
      <g transform="translate(-255 -1437)">
        <g id="Ellipse_2-73" data-name="Ellipse 2" transform="translate(255 1505)" fill="#024eff" stroke="#024eff" stroke-width="1">
          <circle cx="3.5" cy="3.5" r="3.5" stroke="none"/>
          <circle cx="3.5" cy="3.5" r="3" fill="none"/>
        </g>
      </g>
      <g transform="translate(-239 -1437)">
        <g id="Ellipse_2-74" data-name="Ellipse 2" transform="translate(255 1505)" fill="#024eff" stroke="#024eff" stroke-width="1">
          <circle cx="3.5" cy="3.5" r="3.5" stroke="none"/>
          <circle cx="3.5" cy="3.5" r="3" fill="none"/>
        </g>
      </g>
      <g transform="translate(-223 -1437)">
        <g id="Ellipse_2-75" data-name="Ellipse 2" transform="translate(255 1505)" fill="#024eff" stroke="#024eff" stroke-width="1">
          <circle cx="3.5" cy="3.5" r="3.5" stroke="none"/>
          <circle cx="3.5" cy="3.5" r="3" fill="none"/>
        </g>
      </g>
      <g transform="translate(-207 -1437)">
        <g id="Ellipse_2-76" data-name="Ellipse 2" transform="translate(255 1505)" fill="#024eff" stroke="#024eff" stroke-width="1">
          <circle cx="3.5" cy="3.5" r="3.5" stroke="none"/>
          <circle cx="3.5" cy="3.5" r="3" fill="none"/>
        </g>
      </g>
      <g transform="translate(-191 -1437)">
        <g id="Ellipse_2-77" data-name="Ellipse 2" transform="translate(255 1505)" fill="#024eff" stroke="#024eff" stroke-width="1">
          <circle cx="3.5" cy="3.5" r="3.5" stroke="none"/>
          <circle cx="3.5" cy="3.5" r="3" fill="none"/>
        </g>
      </g>
      <g transform="translate(-175 -1437)">
        <g id="Ellipse_2-78" data-name="Ellipse 2" transform="translate(255 1505)" fill="#024eff" stroke="#024eff" stroke-width="1">
          <circle cx="3.5" cy="3.5" r="3.5" stroke="none"/>
          <circle cx="3.5" cy="3.5" r="3" fill="none"/>
        </g>
      </g>
      <g transform="translate(-255 -1420)">
        <g id="Ellipse_2-79" data-name="Ellipse 2" transform="translate(255 1505)" fill="#024eff" stroke="#024eff" stroke-width="1">
          <circle cx="3.5" cy="3.5" r="3.5" stroke="none"/>
          <circle cx="3.5" cy="3.5" r="3" fill="none"/>
        </g>
      </g>
      <g transform="translate(-239 -1420)">
        <g id="Ellipse_2-80" data-name="Ellipse 2" transform="translate(255 1505)" fill="#024eff" stroke="#024eff" stroke-width="1">
          <circle cx="3.5" cy="3.5" r="3.5" stroke="none"/>
          <circle cx="3.5" cy="3.5" r="3" fill="none"/>
        </g>
      </g>
      <g transform="translate(-223 -1420)">
        <g id="Ellipse_2-81" data-name="Ellipse 2" transform="translate(255 1505)" fill="#024eff" stroke="#024eff" stroke-width="1">
          <circle cx="3.5" cy="3.5" r="3.5" stroke="none"/>
          <circle cx="3.5" cy="3.5" r="3" fill="none"/>
        </g>
      </g>
      <g transform="translate(-207 -1420)">
        <g id="Ellipse_2-82" data-name="Ellipse 2" transform="translate(255 1505)" fill="#024eff" stroke="#024eff" stroke-width="1">
          <circle cx="3.5" cy="3.5" r="3.5" stroke="none"/>
          <circle cx="3.5" cy="3.5" r="3" fill="none"/>
        </g>
      </g>
      <g transform="translate(-191 -1420)">
        <g id="Ellipse_2-83" data-name="Ellipse 2" transform="translate(255 1505)" fill="#024eff" stroke="#024eff" stroke-width="1">
          <circle cx="3.5" cy="3.5" r="3.5" stroke="none"/>
          <circle cx="3.5" cy="3.5" r="3" fill="none"/>
        </g>
      </g>
      <g transform="translate(-175 -1420)">
        <g id="Ellipse_2-84" data-name="Ellipse 2" transform="translate(255 1505)" fill="#024eff" stroke="#024eff" stroke-width="1">
          <circle cx="3.5" cy="3.5" r="3.5" stroke="none"/>
          <circle cx="3.5" cy="3.5" r="3" fill="none"/>
        </g>
      </g>
      <g transform="translate(-255 -1403)">
        <g id="Ellipse_2-85" data-name="Ellipse 2" transform="translate(255 1505)" fill="#024eff" stroke="#024eff" stroke-width="1">
          <circle cx="3.5" cy="3.5" r="3.5" stroke="none"/>
          <circle cx="3.5" cy="3.5" r="3" fill="none"/>
        </g>
      </g>
      <g transform="translate(-239 -1403)">
        <g id="Ellipse_2-86" data-name="Ellipse 2" transform="translate(255 1505)" fill="#024eff" stroke="#024eff" stroke-width="1">
          <circle cx="3.5" cy="3.5" r="3.5" stroke="none"/>
          <circle cx="3.5" cy="3.5" r="3" fill="none"/>
        </g>
      </g>
      <g transform="translate(-223 -1403)">
        <g id="Ellipse_2-87" data-name="Ellipse 2" transform="translate(255 1505)" fill="#024eff" stroke="#024eff" stroke-width="1">
          <circle cx="3.5" cy="3.5" r="3.5" stroke="none"/>
          <circle cx="3.5" cy="3.5" r="3" fill="none"/>
        </g>
      </g>
      <g transform="translate(-207 -1403)">
        <g id="Ellipse_2-88" data-name="Ellipse 2" transform="translate(255 1505)" fill="#024eff" stroke="#024eff" stroke-width="1">
          <circle cx="3.5" cy="3.5" r="3.5" stroke="none"/>
          <circle cx="3.5" cy="3.5" r="3" fill="none"/>
        </g>
      </g>
      <g transform="translate(-191 -1403)">
        <g id="Ellipse_2-89" data-name="Ellipse 2" transform="translate(255 1505)" fill="#024eff" stroke="#024eff" stroke-width="1">
          <circle cx="3.5" cy="3.5" r="3.5" stroke="none"/>
          <circle cx="3.5" cy="3.5" r="3" fill="none"/>
        </g>
      </g>
      <g transform="translate(-175 -1403)">
        <g id="Ellipse_2-90" data-name="Ellipse 2" transform="translate(255 1505)" fill="#024eff" stroke="#024eff" stroke-width="1">
          <circle cx="3.5" cy="3.5" r="3.5" stroke="none"/>
          <circle cx="3.5" cy="3.5" r="3" fill="none"/>
        </g>
      </g>
      <g transform="translate(-255 -1386)">
        <g id="Ellipse_2-91" data-name="Ellipse 2" transform="translate(255 1505)" fill="#024eff" stroke="#024eff" stroke-width="1">
          <circle cx="3.5" cy="3.5" r="3.5" stroke="none"/>
          <circle cx="3.5" cy="3.5" r="3" fill="none"/>
        </g>
      </g>
      <g transform="translate(-239 -1386)">
        <g id="Ellipse_2-92" data-name="Ellipse 2" transform="translate(255 1505)" fill="#024eff" stroke="#024eff" stroke-width="1">
          <circle cx="3.5" cy="3.5" r="3.5" stroke="none"/>
          <circle cx="3.5" cy="3.5" r="3" fill="none"/>
        </g>
      </g>
      <g transform="translate(-223 -1386)">
        <g id="Ellipse_2-93" data-name="Ellipse 2" transform="translate(255 1505)" fill="#024eff" stroke="#024eff" stroke-width="1">
          <circle cx="3.5" cy="3.5" r="3.5" stroke="none"/>
          <circle cx="3.5" cy="3.5" r="3" fill="none"/>
        </g>
      </g>
      <g transform="translate(-207 -1386)">
        <g id="Ellipse_2-94" data-name="Ellipse 2" transform="translate(255 1505)" fill="#024eff" stroke="#024eff" stroke-width="1">
          <circle cx="3.5" cy="3.5" r="3.5" stroke="none"/>
          <circle cx="3.5" cy="3.5" r="3" fill="none"/>
        </g>
      </g>
      <g transform="translate(-191 -1386)">
        <g id="Ellipse_2-95" data-name="Ellipse 2" transform="translate(255 1505)" fill="#024eff" stroke="#024eff" stroke-width="1">
          <circle cx="3.5" cy="3.5" r="3.5" stroke="none"/>
          <circle cx="3.5" cy="3.5" r="3" fill="none"/>
        </g>
      </g>
      <g transform="translate(-175 -1386)">
        <g id="Ellipse_2-96" data-name="Ellipse 2" transform="translate(255 1505)" fill="#024eff" stroke="#024eff" stroke-width="1">
          <circle cx="3.5" cy="3.5" r="3.5" stroke="none"/>
          <circle cx="3.5" cy="3.5" r="3" fill="none"/>
        </g>
      </g>
    </g>
  </g>
</svg>
